<svg width="80" height="80" viewBox="0 0 80 80" fill="none" xmlns="http://www.w3.org/2000/svg">
<circle cx="40" cy="40" r="18" fill="white"/>
<rect x="35" width="10" height="15" rx="5" fill="white"/>
<rect x="35" y="65" width="10" height="15" rx="5" fill="white"/>
<rect x="65" y="45" width="10" height="15" rx="5" transform="rotate(-90 65 45)" fill="white"/>
<rect y="45" width="10" height="15" rx="5" transform="rotate(-90 0 45)" fill="white"/>
<rect x="8.18021" y="15.2513" width="10" height="15" rx="5" transform="rotate(-45 8.18021 15.2513)" fill="white"/>
<rect x="54.1421" y="61.2132" width="10" height="15" rx="5" transform="rotate(-45 54.1421 61.2132)" fill="white"/>
<rect x="61.2132" y="25.8578" width="10" height="15" rx="5" transform="rotate(-135 61.2132 25.8578)" fill="white"/>
<rect x="15.2513" y="71.8198" width="10" height="15" rx="5" transform="rotate(-135 15.2513 71.8198)" fill="white"/>
</svg>
