<svg id="Layer_1" data-name="Layer 1" xmlns="http://www.w3.org/2000/svg" viewBox="0 0 1000 1000"><defs><style>.cls-1{fill:#f1f1f1;}</style></defs><title>dc</title><path class="cls-1" d="M830.45,199.23a2.42,2.42,0,0,0-1.23-1.13,783.7,783.7,0,0,0-193.37-60,2.93,2.93,0,0,0-3.11,1.47,545.23,545.23,0,0,0-24.07,49.44,723.57,723.57,0,0,0-217.19,0A500.11,500.11,0,0,0,367,139.61a3.05,3.05,0,0,0-3.11-1.47,781.47,781.47,0,0,0-193.37,60,2.77,2.77,0,0,0-1.27,1.09C46.11,383.11,12.38,562.51,28.93,739.69a3.26,3.26,0,0,0,1.24,2.22A787.9,787.9,0,0,0,267.38,861.78a3.07,3.07,0,0,0,3.33-1.09,562.57,562.57,0,0,0,48.53-78.91,3,3,0,0,0-1.32-4l-.33-.14a518.91,518.91,0,0,1-74.11-35.31,3,3,0,0,1-.3-5.05c5-3.73,10-7.61,14.72-11.53a2.94,2.94,0,0,1,3.07-.41c155.47,71,323.79,71,477.43,0a2.93,2.93,0,0,1,3.11.38c4.76,3.92,9.74,7.84,14.75,11.57a3,3,0,0,1-.26,5.05,487,487,0,0,1-74.14,35.27,3,3,0,0,0-1.62,4.22,631.8,631.8,0,0,0,48.49,78.87,3,3,0,0,0,3.33,1.13,785.28,785.28,0,0,0,237.6-119.86,3,3,0,0,0,1.24-2.18C990.72,534.89,937.73,357,830.45,199.23Zm-488,432.58c-46.81,0-85.38-43-85.38-95.71s37.82-95.71,85.38-95.71c47.93,0,86.12,43.33,85.38,95.71C427.84,588.85,390,631.81,342.46,631.81Zm315.67,0c-46.81,0-85.38-43-85.38-95.71s37.82-95.71,85.38-95.71c47.93,0,86.13,43.33,85.38,95.71C743.5,588.85,706.06,631.81,658.13,631.81Z"/></svg>