<svg id="Layer_1" data-name="Layer 1" xmlns="http://www.w3.org/2000/svg" viewBox="0 0 1000 1000"><defs><style>.cls-1{fill:#f1f1f1;}</style></defs><title>github</title><path class="cls-1" d="M342.75,782.69c0,3.83-4.41,6.9-10,6.9-6.32.57-10.73-2.49-10.73-6.9,0-3.83,4.41-6.9,10-6.9C337.77,775.22,342.75,778.29,342.75,782.69Zm-59.57-8.62c-1.34,3.83,2.49,8.24,8.24,9.39,5,1.92,10.73,0,11.87-3.83s-2.49-8.24-8.24-10c-5-1.34-10.53.57-11.87,4.41Zm84.66-3.26c-5.55,1.34-9.39,5-8.81,9.39.57,3.83,5.55,6.32,11.3,5,5.55-1.34,9.39-5,8.81-8.81C378.57,772.73,373.4,770.24,367.84,770.82Zm126-734C228.22,36.87,25,238.55,25,504.21c0,212.41,133.69,394.17,324.65,458.15,24.52,4.41,33.14-10.73,33.14-23.18,0-11.88-.57-77.38-.57-117.6,0,0-134.07,28.73-162.23-57.08,0,0-21.83-55.74-53.25-70.1,0,0-43.86-30.07,3.06-29.5,0,0,47.69,3.83,73.93,49.42,41.95,73.93,112.24,52.67,139.63,40,4.41-30.65,16.85-51.91,30.65-64.55-107.07-11.88-215.09-27.39-215.09-211.64,0-52.67,14.56-79.1,45.2-112.81-5-12.45-21.26-63.78,5-130.05,40-12.45,132.16,51.71,132.16,51.71a452.48,452.48,0,0,1,240.56,0S713.94,222.65,754,235.3c26.24,66.46,10,117.6,5,130.05,30.65,33.9,49.42,60.33,49.42,112.81,0,184.83-112.81,199.58-219.88,211.64C606.11,704.93,621,733.66,621,778.67c0,64.55-.57,144.42-.57,160.12,0,12.45,8.81,27.58,33.14,23.18C845.14,898.38,975,716.62,975,504.21,975,238.55,759.53,36.87,493.87,36.87ZM211.17,697.46c-2.49,1.92-1.92,6.32,1.34,10,3.06,3.06,7.47,4.41,10,1.92,2.49-1.92,1.92-6.32-1.34-10C218.06,696.31,213.66,695,211.17,697.46Zm-20.69-15.51c-1.34,2.49.57,5.55,4.41,7.47,3.06,1.92,6.9,1.34,8.24-1.34,1.34-2.49-.57-5.55-4.41-7.47C194.89,679.46,191.82,680,190.48,681.95Zm62.06,68.19c-3.06,2.49-1.92,8.24,2.49,11.88,4.41,4.41,10,5,12.45,1.92,2.49-2.49,1.34-8.24-2.49-11.88C260.78,747.64,255,747.07,252.54,750.13ZM230.71,722c-3.06,1.92-3.06,6.9,0,11.3s8.24,6.32,10.73,4.41c3.06-2.49,3.06-7.47,0-11.88-2.68-4.41-7.66-6.32-10.73-3.83Z"/></svg>