<svg id="Layer_1" data-name="Layer 1" xmlns="http://www.w3.org/2000/svg" viewBox="0 0 1000 1000"><defs><style>.cls-1{fill:#f1f1f1;}</style></defs><title>insta</title><path class="cls-1" d="M500.11,256.43A243.57,243.57,0,1,0,743.62,500,243.16,243.16,0,0,0,500.11,256.43Zm0,401.92c-87.11,0-158.32-71-158.32-158.35s71-158.35,158.32-158.35,158.32,71,158.32,158.35S587.21,658.35,500.11,658.35ZM810.38,246.47a56.8,56.8,0,1,1-56.8-56.81A56.67,56.67,0,0,1,810.38,246.47Zm161.28,57.66c-3.6-76.1-21-143.51-76.72-199.05C839.41,49.54,772,32.15,695.93,28.34c-78.42-4.45-313.45-4.45-391.87,0-75.87,3.6-143.27,21-199,76.53S32.15,227.81,28.34,303.92c-4.45,78.43-4.45,313.52,0,392,3.6,76.1,21,143.51,76.72,199.05s122.92,72.92,199,76.74c78.42,4.45,313.45,4.45,391.87,0,76.08-3.6,143.48-21,199-76.74,55.53-55.54,72.91-122.95,76.72-199.05,4.45-78.43,4.45-313.31,0-391.74ZM870.36,780c-16.53,41.55-48.53,73.56-90.28,90.3-62.52,24.8-210.88,19.08-280,19.08s-217.66,5.51-280-19.08C178.6,853.8,146.6,821.79,129.85,780c-24.8-62.53-19.07-210.92-19.07-280s-5.51-217.71,19.07-280c16.53-41.55,48.53-73.56,90.28-90.3,62.52-24.8,210.88-19.08,280-19.08s217.66-5.51,280,19.08c41.54,16.53,73.54,48.54,90.28,90.3,24.8,62.53,19.07,210.92,19.07,280S895.15,717.71,870.36,780Z"/></svg>