<svg id="Layer_1" data-name="Layer 1" xmlns="http://www.w3.org/2000/svg" xmlns:xlink="http://www.w3.org/1999/xlink" viewBox="0 0 2160 2160"><defs><style>.cls-1{fill:#fff;}.cls-2{fill:#044304;}.cls-3{fill:#3a9e02;}.cls-4{fill:#99fd03;}.cls-5{fill:url(#linear-gradient);}.cls-6{fill:#29abe2;}</style><linearGradient id="linear-gradient" x1="1068.73" y1="1602.87" x2="1068.73" y2="980.97" gradientUnits="userSpaceOnUse"><stop offset="0" stop-color="#fcce0d"/><stop offset="1" stop-color="#ff6b30"/></linearGradient></defs><title>Pandu 1</title><rect class="cls-1" width="2160" height="2160" rx="550" ry="550"/><path class="cls-2" d="M1291.45,1528.35c62.36-37.82,252.63-168,315.46-433.38C1680.77,788,1540,479,1259.1,334.89c-99.79-51.2-208.78-83.62-321.42-97.9,55.38-62.9,110.18-124.7,165-187,174.53,34.67,322.11,119,440.15,256,100,113.14,155.1,227.27,178.18,378.72,43.6,315.33-33.34,504.29-232.94,702.61-110.73,106.44-215.89,170.56-282.57,200.05-35.91,18-87,33.32-94.9,35.91-1.7-3.08-2.23-7.33-3.85-10.26C1131.16,1605.29,1227.34,1573.23,1291.45,1528.35Z"/><path class="cls-3" d="M1087.56,1619.39v-9c13.23-2.25,57.71-18,90.87-35.91,127.07-65.19,220.52-159.39,277.17-291.62,107.79-251.59,23.34-538.64-207.68-686.77-96.24-64.18-232.17-98.8-309.31-106.5C984,438,1028.82,386.43,1073.45,335.74a663.13,663.13,0,0,1,178.25,63.49c124.39,68.59,214.16,168.62,280.34,295.09,31.27,67.17,44.1,139,54.78,213.79,2.14,77.8,3.42,150.89-17.1,231.39-23.08,88.77-70.53,165.71-130.8,236.1-83.35,92.48-165.43,164.29-289.82,222C1132.44,1605.29,1093.81,1617.36,1087.56,1619.39Z"/><path class="cls-4" d="M1087.56,1610.42c.15,0,0-9,0-9,12.82-3.85,53.86-24.37,71.81-35.91,105.42-66.3,175.13-158,205.18-279,47.69-192-43.6-396.83-226.12-484.91C1072.17,760.2,945.32,742.48,940,741.06c35-39.76,65.42-75.53,104-119.35,47.45,11.54,89.77,24.37,136.93,50,101.45,51.18,176,141.06,221.77,236.23,49.09,117.71,52.94,245.94,18.32,365.16-35.34,101.35-107.72,179.58-185.94,247.54C1178.61,1566.82,1097.82,1609.14,1087.56,1610.42Z"/><path class="cls-2" d="M1087.56,1682.23c107.64-1.09,212.05-18.64,314.79-49.34,98.13-30.16,203.28-75,293.05-126.34,1.42,1.48,16.22,26.91,22.69,38.47-197.09,106.5-403.5,176.38-629.25,180.81,5,126.15,19.24,250.06,59.29,370.61-13.17,4.17-29.14,9.3-42.62,13.56-38.47-129-55.14-237.67-60.27-384.17-221.71-5.18-421.9-73.1-618.1-180.81,3.49-6.33,17.93-31.59,21.8-38.47,93.61,53.86,188.3,95.32,288.47,125.67,100.58,30.47,198.56,48,307.84,50,0-76.54-1.28-141.06,4.63-228.26,17.7,1.07,35.5,1.78,44.1,2.3C1091.4,1506.55,1085,1625.81,1087.56,1682.23Z"/><path class="cls-5" d="M1118.41,1587.08l-9.9,6c68.9-99.43,54.45-204.63,19.17-310-14.74-44-35.59-86-53.75-128.85-1.05-2.49-2.9-4.64-6-9.48-15,34.33-31.23,65.77-42.66,98.87-15.47,44.78-32.71,90-39.43,136.51-11.29,78-3.16,154.44,50,219.13.28.34-.15,1.26-.5,3.59-29.62-28.86-52.37-61.09-67.9-98.29-42-100.53-31.1-202,3.18-300.46,25.49-73.23,61.5-142.79,92.91-213.95,1.11-2.53,3.12-4.66,6.23-9.2,13.76,26.26,27.53,50.82,39.73,76.14,38.62,80.11,71.15,162.4,83.29,251.25C1206.86,1411.5,1189.42,1506.51,1118.41,1587.08Z"/><path class="cls-6" d="M1041.93,1604.38c-.26.23-.53.66-.77.64s-.47-.46-.71-.72c.26-.23.53-.65.78-.64S1041.69,1604.12,1041.93,1604.38Z"/></svg>