<svg id="Layer_1" data-name="Layer 1" xmlns="http://www.w3.org/2000/svg" viewBox="0 0 1000 1000"><defs><style>.cls-1{fill:#ffa401;}.cls-2{fill:#e56467;}.cls-3{fill:#a585db;}.cls-4{fill:#ffc25f;}.cls-5{fill:#d88b0f;}.cls-6,.cls-7{fill:none;}.cls-6{stroke:#f4e977;stroke-miterlimit:10;stroke-width:8px;}.cls-6,.cls-7,.cls-8{stroke-linecap:round;}.cls-7,.cls-8{stroke:#232323;stroke-linejoin:round;stroke-width:20px;}.cls-8{fill:#fff;}.cls-9{fill:#232323;}</style></defs><title>saweria</title><path class="cls-1" d="M315.59,261.45l-39.27-51.79-14-79-10.23-67L204.34,29.1,147.76,43.26l-20.59,76,18.38,80.05,16,39.4L193.68,268l24.25,16.49,27.88,13.59,21,8.2-4.49,17-139.52,197L80.52,593.67,57,660.48l12.6,23.87L98,682.18l8.63,9L78.88,778.64,91,822.14l17.26,15.23,36.12,25.89,30.21,17.26,24.51,3.67L216.85,913l32.07,36.47,31.42,16.87L312.27,975l41.9-3.84s45.31-10.27,46.13-10.62,35.43-20.15,35.43-20.15l11.65-17.26,39.92-7.77,43.54,4.32,38.84,6.6,35,26.54,91.58,11.87,50.58-25.46,25.89-17.65,15.67-27,17.78-16,50.45-15L914,817l13.38-43.16-10.27-37.46-13.94-36.73,5.14-17.26,30.21,5.22L948,669.54l-28-76.34L835.93,456.43,754.32,343.49l-22.79-22.7,9.58-15.23,48.59-19.42,45.92-35.22,26.54-51.79L873.65,144l-3.84-56.41L850,41,815.43,25,764.72,38.77,741.07,74.59l-6.52,59.64-5.48,56.1-25.89,58.74L685.92,261.5,648,260l-57.66-12.6L514.54,240,417,245.66l-79,22.18-22.44-6.21"/><polyline class="cls-2" points="451.58 677.22 452.1 703.55 471.13 741.83 485.28 755.64 507.34 759.43 531.94 749.55 543.03 732.63 549.54 699.58 557.53 686.76 543.03 671.65 510.62 650.38 490.03 650.38 479.76 666.17 451.58 677.22"/><ellipse class="cls-3" cx="498.88" cy="524.19" rx="142.16" ry="65.55"/><path class="cls-4" d="M345.76,263.78s277.11,24.56,298.6,9.67-58.65-22.79-58.65-22.79l-173.1-1.94-70.47,12.6"/><path class="cls-4" d="M758.94,47.66s69.05-27,73.8,38.54A527.85,527.85,0,0,0,855.09,203l7.42-62.27,3.93-38L858,68.24,835,34.75l-41.39-7.64Z"/><path class="cls-4" d="M145.82,51.67s72,0,74.19,103.58,72.76,90.41,72.76,90.41l-19.51-34.05-7.38-38.84L261.56,121l-4.79-33L251.16,57.8,232.69,40.54,193.12,25.69l-31,10.66"/><path class="cls-4" d="M852.28,484.83S909.77,675.41,927.81,682s11.78-18.34,11.78-18.34l-12.64-42.55"/><path class="cls-4" d="M689,767.85s98.61,55.71,100.51,97.58-16.23-73.8-16.23-73.8l-28.44-23.78L727,764.05h-32.5"/><path class="cls-4" d="M341.62,791.41s39.92,3,44.06,33.88S457,859.82,460,881.39s5.39-28.83,5.39-28.83l-18.6-23.26L426.72,816.1,403.5,829l-10.66-27.53-7.16-16.83Z"/><path class="cls-5" d="M209.64,830.51S250.43,957.09,345.72,964s-64.43,5.87-64.43,5.87l-49.8-37.24s-20.84-24.6-21.84-26.2-22-26.93-22-26.93l-47.77-18.3L89.71,823"/><polyline class="cls-5" points="523.69 874.36 457.19 901.59 457.19 918.12 528.96 917.73 536.68 902.24 520.93 874.36"/><polyline class="cls-5" points="791.95 835.13 871.32 839.14 838.13 876.26 789.62 879.19 794.2 842.08"/><path class="cls-5" d="M528.09,857.14S623.51,954.72,666.19,959,611,954.2,611,954.2l-28.4-17-33.19-21.58L527.79,896.2,514,864.65"/><path class="cls-5" d="M424.26,691.12s23.65,78.8,50.41,80.44,23.48-11.26,23.48-11.26l-37-29-12.95-28.91-8-15.67-22.87,1.34"/><path class="cls-5" d="M715.7,220s36.9,53.82,8,54.38-44.93-21.23-44.06-21.58,16.23-9.32,16.23-9.32L708.53,231l5.22-16"/><path class="cls-5" d="M127.17,119.3s69.27,134.39,107.89,144.88S261,304,261,304L212,286.74,178.87,265.6l-27-29.73-22.57-54.94-2.16-40.09Z"/><path class="cls-5" d="M204.94,395.58S98,634.28,104.43,671.78,93.08,680,93.08,680l-19.55,6.52L52,663.89l5.48-29.82,25.89-56.53,63.57-102.45"/><path class="cls-5" d="M106,680.11S105.51,801,135.63,809.58s78.5,9.36,78.5,9.36l-31.46,38s-37.46-17.26-41.17-18-41.86-16.1-41.86-16.1L76.77,803.93l-3.11-14"/><line class="cls-6" x1="176.85" y1="701.65" x2="155.91" y2="744.07"/><line class="cls-6" x1="225.27" y1="710.28" x2="204.34" y2="752.7"/><line class="cls-6" x1="754.88" y1="695.91" x2="785.74" y2="758.44"/><line class="cls-6" x1="807.27" y1="684" x2="838.13" y2="746.53"/><path class="cls-7" d="M324.61,811.22s3.84-40.74-45.75-43.5S191.3,842.08,206.23,895s75.48,77.12,109.1,78.24,117.34-11,146.73-72.76-42.42-106.29-61.15-71.6c0,0,0-47.95-29.78-51.23S324.61,811.22,324.61,811.22Z"/><path class="cls-7" d="M668,802s-3.84-40.78,45.75-43.54,87.56,74.4,72.72,127.27S711,962.87,677.37,964,560,953,530.64,891.28s42.42-106.16,61.11-71.64c0,0,0-47.9,29.78-51.23S668,802,668,802Z"/><line class="cls-7" x1="457.19" y1="915.66" x2="540.39" y2="913.11"/><ellipse class="cls-8" cx="314.18" cy="479.35" rx="117.3" ry="99.17" transform="translate(-232.4 651.81) rotate(-74.27)"/><ellipse class="cls-8" cx="674" cy="474.29" rx="98.9" ry="116.98" transform="translate(-103.24 200.2) rotate(-15.71)"/><ellipse class="cls-9" cx="361.17" cy="464.89" rx="47" ry="78.24"/><ellipse class="cls-9" cx="629.73" cy="464.89" rx="47" ry="78.24"/><path class="cls-9" d="M586.49,565.23c0,22.4-39.92,40.52-89.16,40.52a165,165,0,0,1-57.23-9.45c-19.51-7.42-31.94-18.6-31.94-31.07,0-22.35,39.92-40.48,89.16-40.48S586.49,542.88,586.49,565.23Z"/><ellipse class="cls-9" cx="497.32" cy="602.43" rx="45.75" ry="32.5"/><path class="cls-7" d="M366.3,644.85s19.12,1.86,38.58-20.93"/><path class="cls-7" d="M591.45,623.92s27.92,18,44.45,14.67"/><path class="cls-7" d="M390.08,637.13s12.39,48.51,35,48.21,74.62-33.66,76.3-53.86"/><path class="cls-7" d="M613.67,635.06s-5.44,50.84-30.9,51.79-77.68-25.07-81.39-57.27"/><path class="cls-7" d="M445.19,680.11s17.91,81.26,56.1,80.14,56.1-78.37,56.1-78.37"/><path class="cls-7" d="M305.49,341.29s41.34-36.38,73.37-32.5"/><path class="cls-7" d="M666.37,335s-41.3-36.38-73.37-32.5"/><path class="cls-7" d="M464,359.12s2,18.34-12.39,46.65"/><path class="cls-7" d="M527.79,359.12s-2,18.34,12.39,46.65"/><line class="cls-7" x1="495.86" y1="356.74" x2="495.86" y2="408.23"/><path class="cls-7" d="M790.44,882.3C829.28,883.47,877.1,846,902.65,823a49.54,49.54,0,0,0,15.23-46.61c-8.63-43.16-33.62-101.29-33.62-101.29,188.42,73.84-162.7-370.76-162.7-370.76,52.52,1.08,108.71-47.47,133.78-101.37S879.95,20.64,799.5,26.08s-63.61,101.46-76.3,168.65-59,69.44-59,69.44-164.64-60.07-336.32,0c0,0-46.31-2.2-59-69.44s4.32-163-76-168.57S112.15,149,137.18,203,218.36,305.47,271,304.39c0,0-351.12,444.51-162.7,370.76,0,0-24.94,58.26-33.62,101.29A49.54,49.54,0,0,0,89.71,823c25.38,22.92,73,60.42,112.21,59.25"/></svg>