<svg id="Layer_1" data-name="Layer 1" xmlns="http://www.w3.org/2000/svg" viewBox="0 0 1000 1000"><defs><style>.cls-1{fill:#f1f1f1;}</style></defs><title>spotify</title><path class="cls-1" d="M500,25C237.79,25,25,237.79,25,500S237.79,975,500,975,975,762.21,975,500,762.21,25,500,25ZM692.87,723.9c-8,0-13-2.49-20.49-6.9-119.52-72-258.57-75.08-395.9-46.93-7.47,1.92-17.24,5-22.79,5-18.58,0-30.26-14.75-30.26-30.26,0-19.73,11.68-29.11,26-32.18C406.34,578,566.65,581,703.41,662.8,715.09,670.27,722,677,722,694.41a28.94,28.94,0,0,1-29.11,29.5ZM744.4,598.26c-10,0-16.66-4.41-23.56-8-119.71-70.87-298.22-99.41-457-56.31-9.19,2.49-14.17,5-22.79,5a37.19,37.19,0,0,1-37.16-37.16c0-20.49,10-34.09,29.69-39.65,53.25-14.94,107.64-26,187.32-26,124.3,0,244.4,30.84,339,87.15,15.51,9.19,21.64,21.07,21.64,37.73C781.36,581.59,765.27,598.26,744.4,598.26Zm59.38-145.95c-10,0-16.09-2.49-24.71-7.47C642.69,363.44,398.87,343.9,241,388c-6.9,1.92-15.51,5-24.71,5-25.28,0-44.63-19.73-44.63-45.2,0-26,16.09-40.8,33.33-45.78,67.42-19.73,142.88-29.11,225.05-29.11,139.82,0,286.34,29.11,393.41,91.55,14.94,8.62,24.71,20.49,24.71,43.29a44.38,44.38,0,0,1-44.44,44.63Z"/></svg>