<svg id="Layer_1" data-name="Layer 1" xmlns="http://www.w3.org/2000/svg" viewBox="0 0 1000 1000"><defs><style>.cls-1{fill:#f1f1f1;}</style></defs><title>twt</title><path class="cls-1" d="M877.35,306.5c.6,8.44.6,16.88.6,25.32,0,257.39-195.91,554-554,554-110.31,0-212.79-31.95-299-87.4a402.79,402.79,0,0,0,47,2.41,389.93,389.93,0,0,0,241.72-83.18,195,195,0,0,1-182-135,245.54,245.54,0,0,0,36.77,3A205.92,205.92,0,0,0,219.7,579,194.73,194.73,0,0,1,63.58,387.88v-2.41a196.09,196.09,0,0,0,88,24.71A195,195,0,0,1,91.31,149.78,553.43,553.43,0,0,0,492.77,353.52a219.8,219.8,0,0,1-4.82-44.61c0-107.3,86.8-194.7,194.7-194.7A194.23,194.23,0,0,1,824.9,175.7a383.33,383.33,0,0,0,123.57-47A194.18,194.18,0,0,1,862.88,236C902.06,231.76,940,220.91,975,205.84A418.53,418.53,0,0,1,877.35,306.5Z"/></svg>