<svg id="Layer_1" data-name="Layer 1" xmlns="http://www.w3.org/2000/svg" viewBox="0 0 1000 1000"><defs><style>.cls-1{fill:#f1f1f1;}</style></defs><title>yt</title><path class="cls-1" d="M955.15,270.53a119.37,119.37,0,0,0-84-84.53C797.07,166,500,166,500,166s-297.07,0-371.16,20a119.37,119.37,0,0,0-84,84.53C25,345.1,25,500.67,25,500.67s0,155.58,19.85,230.14C55.78,772,88,803,128.84,814,202.93,834,500,834,500,834s297.07,0,371.16-20c40.87-11,73.06-42,84-83.18C975,656.25,975,500.67,975,500.67S975,345.1,955.15,270.53ZM402.84,641.93V359.42L651.13,500.68,402.84,641.93Z"/></svg>